<svg width="25" height="25" viewBox="0 0 25 25" fill="none" xmlns="http://www.w3.org/2000/svg">
<mask id="mask0_674_345" style="mask-type:alpha" maskUnits="userSpaceOnUse" x="0" y="0" width="25" height="25">
<rect x="0.5" y="0.5" width="24" height="24" fill="#D9D9D9"/>
</mask>
<g mask="url(#mask0_674_345)">
<path d="M4.5 22.5V11.5H2.5V5.5H7.7C7.61667 5.35 7.5625 5.19167 7.5375 5.025C7.5125 4.85833 7.5 4.68333 7.5 4.5C7.5 3.66667 7.79167 2.95833 8.375 2.375C8.95833 1.79167 9.66667 1.5 10.5 1.5C10.8833 1.5 11.2417 1.57083 11.575 1.7125C11.9083 1.85417 12.2167 2.05 12.5 2.3C12.7833 2.03333 13.0917 1.83333 13.425 1.7C13.7583 1.56667 14.1167 1.5 14.5 1.5C15.3333 1.5 16.0417 1.79167 16.625 2.375C17.2083 2.95833 17.5 3.66667 17.5 4.5C17.5 4.68333 17.4833 4.85417 17.45 5.0125C17.4167 5.17083 17.3667 5.33333 17.3 5.5H22.5V11.5H20.5V22.5H4.5ZM14.5 3.5C14.2167 3.5 13.9792 3.59583 13.7875 3.7875C13.5958 3.97917 13.5 4.21667 13.5 4.5C13.5 4.78333 13.5958 5.02083 13.7875 5.2125C13.9792 5.40417 14.2167 5.5 14.5 5.5C14.7833 5.5 15.0208 5.40417 15.2125 5.2125C15.4042 5.02083 15.5 4.78333 15.5 4.5C15.5 4.21667 15.4042 3.97917 15.2125 3.7875C15.0208 3.59583 14.7833 3.5 14.5 3.5ZM9.5 4.5C9.5 4.78333 9.59583 5.02083 9.7875 5.2125C9.97917 5.40417 10.2167 5.5 10.5 5.5C10.7833 5.5 11.0208 5.40417 11.2125 5.2125C11.4042 5.02083 11.5 4.78333 11.5 4.5C11.5 4.21667 11.4042 3.97917 11.2125 3.7875C11.0208 3.59583 10.7833 3.5 10.5 3.5C10.2167 3.5 9.97917 3.59583 9.7875 3.7875C9.59583 3.97917 9.5 4.21667 9.5 4.5ZM4.5 7.5V9.5H11.5V7.5H4.5ZM11.5 20.5V11.5H6.5V20.5H11.5ZM13.5 20.5H18.5V11.5H13.5V20.5ZM20.5 9.5V7.5H13.5V9.5H20.5Z" fill="white"/>
</g>
</svg>
